<?xml version="1.0" encoding="utf-8"?>
<!-- Generator: Adobe Illustrator 27.9.4, SVG Export Plug-In . SVG Version: 9.03 Build 54784)  -->
<svg version="1.1" id="Ebene_1" xmlns="http://www.w3.org/2000/svg" xmlns:xlink="http://www.w3.org/1999/xlink" x="0px" y="0px"
	 viewBox="0 0 510.2 77.7" style="enable-background:new 0 0 510.2 77.7;" xml:space="preserve">
<style type="text/css">
	.st0{fill:#FFBE1C;}
</style>
<path class="st0" d="M119,19.2C103.9,30.4,100.9,49,112,64c11.3,15.3,29.9,17.7,45,6.5c15.1-11.1,18.2-29.6,6.9-44.9
	C152.7,10.6,134,8.1,119,19.2z M155.5,69c-6.6,4.9-14.4,0.3-27.2-17c-12.7-17.2-14.9-26.1-8.1-31.2c6.8-5,14.7-0.4,27.4,16.8
	C160.3,54.8,162.4,63.9,155.5,69z M68.1,75.7c2.1-1.5,4.4-3.1,7.1-4.7L71.6,9.4L46.7,75.3h-6.2L17,8.2h-0.1l-4.3,58.5
	c4,3.1,7.8,6.2,11,9v0.6H0v-0.6c2.9-2.8,6.8-6.2,10.2-9l4.7-61.3C11.2,3.7,9,2.2,6.2,0.6V0h27.7l18.6,53.4L72.3,0h25.8v0.6
	c-2.4,1.8-5,3.4-8.2,4.8L94.5,71c2.9,1.6,5.2,3.2,7.4,4.7v0.6H68.1V75.7z M362.3,73.9h7.6v2.4h-33.3v-2.4h6.8V31.2
	c0-7.1-3.2-11.6-9.8-11.6c-3.9,0-7,1.7-10,4.8v49.5h6.8v2.4h-33.3v-2.4h7.6V2.4h-7.6V0h26.1v22c5.2-5.2,12.6-8.2,19.8-8.2
	c12.6,0,19.3,7.9,19.3,20.5V73.9z M415.2,67.2c-13.5,0-18.4-9.5-20.1-17.6l35.3-11.5C430,24.8,420.1,14,405.3,14
	c-15.3,0-30.3,11.6-30.3,32.7c0,18.7,11.9,31.1,29.9,31.1c12.4,0,21.1-6,25.6-15l-0.4-0.4C425.7,65.4,421.1,67.2,415.2,67.2z
	 M394.2,38.8V38c0-15.1,4-22,10.2-22c5.9,0,8.6,6.5,8.6,22.7l-18.6,6C394,41.3,394.2,38.8,394.2,38.8z M510.2,73.9v2.4h-33.3v-2.4
	h7.4V31.2c0-7.1-3.2-11.6-9.8-11.6c-3.9,0-7,1.6-10,4.8v49.5h6.8v2.4H438v-2.4h7.6V17.7H438v-2.4h26.5v6.3c5.2-5,12.4-7.8,19.4-7.8
	c12.6,0,19.3,7.9,19.3,20.5v39.6H510.2z M228.1,59.3c0,13.1-12.2,18.3-28.4,18.3c-8.4,0-14.6-1.2-21.6-4.6l0.3-5h0.7
	c6.7,5.1,12.4,7.1,20.1,7c7.2,0,11.5-3.2,11.5-9.1c0-16.1-31.1-12.9-31.1-33.2c0-12.6,11.8-18.9,27.3-18.9c7.5,0,12.6,1.2,19.7,4.4
	l-0.4,4.8h-0.7c-6.4-4.8-11.5-6.7-18.1-6.7c-6.6-0.1-10.6,2.9-10.6,8.4C196.9,40,228.1,38.2,228.1,59.3z M290,63.6
	c-4.8,9.1-13.5,14.1-24.2,14.1c-17,0-28.8-12.4-28.8-30.8c0-19.3,13.1-32.9,32-32.9c7.5,0,14.1,1.3,20.5,4c-0.3,7-0.8,13-1.7,20.6
	h-0.7L271.2,17c-1.1-0.7-2-1.1-3.5-1.1c-6.6,0-11.9,9.5-11.9,23.7c0,17.3,8.2,27.4,21.2,27.4c4.1,0,8.4-1.5,12.7-3.9L290,63.6z"/>
</svg>
