<?xml version="1.0" encoding="UTF-8" standalone="no"?>
<!DOCTYPE svg PUBLIC "-//W3C//DTD SVG 1.1//EN" "http://www.w3.org/Graphics/SVG/1.1/DTD/svg11.dtd">
<svg width="100%" height="100%" viewBox="0 0 3509 2484" version="1.1" xmlns="http://www.w3.org/2000/svg" xmlns:xlink="http://www.w3.org/1999/xlink" xml:space="preserve" xmlns:serif="http://www.serif.com/" style="fill-rule:evenodd;clip-rule:evenodd;stroke-linejoin:round;stroke-miterlimit:2;">
    <g transform="matrix(4.16667,0,0,4.16667,0,0)">
        <path d="M263.475,441.513C263.475,441.513 259.064,464.72 260.976,465.55C262.887,466.378 265.203,466.743 267.242,459.622C269.281,452.499 268.898,446.597 268.898,446.597" style="fill:rgb(35,31,32);fill-rule:nonzero;"/>
        <path d="M222.727,448.49C227.936,448.247 232.764,448.81 237.215,450.177C239.068,450.753 240.943,451.533 242.838,452.519C244.732,453.509 246.48,454.749 248.082,456.245C249.684,457.743 251.082,459.558 252.271,461.689C253.463,463.818 254.318,466.308 254.834,469.156C255.605,473.429 255.623,477.784 254.887,482.226C254.148,486.667 252.836,491.021 250.947,495.284C249.057,499.55 246.711,503.616 243.91,507.486C241.107,511.357 238.023,514.82 234.654,517.88C231.287,520.941 227.742,523.509 224.02,525.583C220.297,527.658 216.605,529.027 212.943,529.691C210.568,530.12 208.146,530.085 205.675,529.587C203.203,529.089 200.904,528.193 198.779,526.894C196.652,525.601 194.818,523.884 193.277,521.746C191.734,519.608 190.705,517.116 190.189,514.265C189.845,512.368 189.89,510.4 190.328,508.357C190.763,506.32 191.5,504.294 192.539,502.284C193.574,500.277 194.802,498.355 196.222,496.525C197.64,494.691 199.199,493.04 200.896,491.581C202.591,490.116 204.314,488.896 206.064,487.911C207.812,486.931 209.5,486.29 211.126,485.997C212.958,485.667 214.4,485.599 215.451,485.792C216.5,485.99 217.328,486.292 217.93,486.71C218.529,487.126 218.934,487.616 219.139,488.173C219.346,488.73 219.479,489.179 219.541,489.517C219.676,490.267 219.117,490.661 217.865,490.714C216.613,490.767 215.242,490.925 213.75,491.197C211.578,491.589 209.38,492.599 207.154,494.23C204.927,495.859 202.972,497.824 201.287,500.122C199.603,502.425 198.324,504.933 197.449,507.648C196.574,510.363 196.371,513.007 196.835,515.585C197.191,517.551 197.904,519.07 198.974,520.136C200.042,521.204 201.267,521.978 202.652,522.466C204.035,522.95 205.531,523.187 207.142,523.176C208.748,523.163 210.267,523.03 211.691,522.773C213.656,522.415 215.854,521.493 218.281,520.004C220.707,518.514 223.143,516.585 225.586,514.216C228.029,511.845 230.367,509.095 232.602,505.96C234.836,502.822 236.709,499.437 238.223,495.8C239.734,492.165 240.813,488.347 241.455,484.341C242.096,480.339 242.037,476.238 241.275,472.031C240.514,467.825 239.34,464.447 237.76,461.898C236.176,459.347 234.404,457.392 232.441,456.031C230.479,454.671 228.428,453.781 226.287,453.365C224.145,452.947 222.133,452.767 220.254,452.827C218.373,452.888 216.707,453.066 215.256,453.363C213.802,453.661 212.804,453.859 212.263,453.956C211.449,454.105 210.701,454.327 210.019,454.626C209.337,454.925 208.748,455.138 208.244,455.263C207.742,455.39 207.328,455.341 207.009,455.118C206.689,454.898 206.449,454.343 206.289,453.462C206.216,453.056 206.912,452.456 208.38,451.665C209.847,450.874 211.679,449.861 213.871,448.622C216.064,447.386 218.406,445.911 220.898,444.199C223.389,442.488 225.633,440.47 227.629,438.148C229.625,435.827 231.17,433.236 232.264,430.376C233.357,427.517 233.58,424.29 232.928,420.693C232.621,419.001 232.121,417.306 231.43,415.607C230.736,413.911 229.799,412.4 228.613,411.075C227.428,409.747 225.969,408.751 224.236,408.081C222.504,407.417 220.484,407.292 218.18,407.71C211.328,408.95 205.32,411.052 200.148,414.021C194.976,416.988 190.699,420.247 187.314,423.802C183.929,427.359 181.468,430.884 179.931,434.384C178.394,437.886 177.828,440.753 178.234,442.991C178.664,445.366 179.449,446.906 180.591,447.607C181.734,448.312 182.882,448.56 184.037,448.349C186.001,447.995 187.675,447.077 189.054,445.605C190.431,444.128 191.722,442.353 192.925,440.279C194.125,438.208 195.265,436.005 196.351,433.671C197.433,431.339 198.626,429.128 199.931,427.033C201.232,424.943 202.707,423.136 204.359,421.611C206.007,420.085 207.986,419.115 210.292,418.697C211.785,418.427 213.15,418.427 214.391,418.693C215.627,418.958 216.654,419.298 217.463,419.71C218.273,420.124 218.807,420.556 219.063,420.997C219.316,421.443 219.207,421.706 218.734,421.794C216.766,422.148 214.947,423.999 213.277,427.351C211.607,430.699 209.884,435.021 208.113,440.314C206.337,445.611 204.38,451.618 202.236,458.347C200.091,465.075 197.564,472.009 194.656,479.156C191.746,486.3 188.32,493.4 184.378,500.45C180.437,507.505 175.765,514.007 170.365,519.957C164.96,525.908 158.728,531.044 151.667,535.37C144.607,539.695 136.498,542.689 127.341,544.345C120.56,545.572 114.355,545.732 108.728,544.824C103.099,543.915 98.143,542.081 93.862,539.32C89.581,536.558 86.04,532.962 83.241,528.529C80.442,524.1 78.509,518.933 77.442,513.033C76.741,509.167 76.733,505.142 77.409,500.954C78.089,496.771 79.253,492.656 80.901,488.609C82.552,484.564 84.614,480.689 87.097,476.98C89.577,473.275 92.233,469.958 95.065,467.029C97.897,464.099 100.857,461.673 103.939,459.749C107.023,457.824 109.99,456.605 112.837,456.089C115.958,455.525 118.47,455.474 120.375,455.933C122.281,456.394 123.751,457.074 124.787,457.97C125.828,458.87 126.535,459.878 126.912,460.999C127.292,462.124 127.548,463.058 127.683,463.804C127.818,464.55 127.619,465.093 127.083,465.437C126.552,465.779 125.791,466.021 124.8,466.163C123.812,466.308 122.689,466.408 121.439,466.458C120.187,466.509 118.951,466.646 117.73,466.866C115.154,467.331 112.576,468.376 109.998,469.999C107.419,471.62 104.97,473.658 102.646,476.111C100.324,478.564 98.182,481.349 96.225,484.47C94.268,487.591 92.679,490.89 91.45,494.368C90.225,497.847 89.386,501.433 88.932,505.12C88.481,508.812 88.571,512.417 89.21,515.945C89.934,519.947 91.366,523.591 93.503,526.882C95.64,530.173 98.388,532.88 101.75,535.003C105.111,537.126 109.052,538.583 113.574,539.378C118.093,540.169 123.068,540.075 128.492,539.093C133.376,538.208 138.056,536.206 142.533,533.083C147.011,529.964 151.224,526.152 155.173,521.656C159.123,517.16 162.808,512.167 166.228,506.681C169.646,501.193 172.746,495.677 175.523,490.13C182.13,477.099 187.974,462.556 193.052,446.509C192.441,447.39 191.716,448.22 190.878,449.003C190.164,449.695 189.248,450.349 188.134,450.97C187.021,451.591 185.787,452.025 184.431,452.273C180.361,453.009 177.222,452.595 175.013,451.034C172.804,449.474 171.394,446.997 170.781,443.607C170.363,441.3 170.667,438.829 171.697,436.189C172.724,433.554 174.294,430.906 176.406,428.245C178.513,425.587 181.06,423.009 184.041,420.507C187.017,418.009 190.224,415.695 193.656,413.566C197.089,411.441 200.666,409.62 204.384,408.105C208.101,406.591 211.791,405.503 215.455,404.841C219.32,404.14 222.801,404.019 225.895,404.474C228.988,404.929 231.688,405.808 233.988,407.109C236.289,408.408 238.135,410.085 239.523,412.146C240.91,414.206 241.826,416.456 242.27,418.898C242.625,420.866 242.607,422.794 242.213,424.687C241.82,426.579 241.203,428.39 240.359,430.116C239.518,431.847 238.486,433.503 237.268,435.089C236.049,436.677 234.791,438.148 233.496,439.503C230.436,442.72 226.846,445.714 222.727,448.49Z" style="fill:rgb(35,31,32);fill-rule:nonzero;"/>
        <path d="M285.34,490.845C286.492,490.636 287.891,489.562 289.537,487.616C291.18,485.673 292.947,483.253 294.84,480.355C296.732,477.454 298.658,474.269 300.621,470.796C302.584,467.325 304.422,463.927 306.133,460.607C307.844,457.286 309.377,454.259 310.738,451.525C312.1,448.792 313.145,446.728 313.875,445.335C314.127,444.802 314.451,444.462 314.846,444.32C315.242,444.181 315.604,444.148 315.932,444.228C316.262,444.308 316.512,444.527 316.682,444.88C316.85,445.236 316.834,445.64 316.639,446.095C315.725,448.013 314.484,450.654 312.924,454.019C311.361,457.382 309.602,461.011 307.645,464.904C305.688,468.794 303.572,472.784 301.301,476.872C299.029,480.96 296.729,484.685 294.395,488.05C292.063,491.415 289.771,494.245 287.525,496.542C285.279,498.841 283.174,500.167 281.209,500.523C279.035,500.917 277.301,500.706 275.998,499.89C274.695,499.075 273.693,498.101 273,496.966C272.197,495.642 271.627,494.027 271.283,492.128C270.658,488.671 270.674,485.48 271.338,482.558C271.998,479.638 272.811,476.865 273.771,474.24C274.73,471.613 275.584,469.077 276.334,466.628C277.08,464.183 277.229,461.706 276.773,459.195C276.602,458.247 276.172,457.519 275.486,457.013C274.797,456.507 273.959,456.029 272.967,455.577C271.975,455.126 270.928,454.669 269.83,454.2C268.729,453.738 267.648,453.091 266.59,452.267C265.529,451.445 264.582,450.37 263.748,449.05C262.914,447.732 262.301,445.988 261.907,443.816C261.504,441.577 261.579,439.392 262.139,437.259C262.699,435.128 263.592,433.199 264.82,431.47C266.049,429.741 267.539,428.296 269.289,427.14C271.041,425.982 272.9,425.226 274.869,424.87C275.818,424.699 276.639,424.777 277.328,425.107C278.018,425.441 278.412,425.872 278.51,426.417C278.658,427.23 278.447,428.199 277.879,429.314C277.311,430.433 276.68,431.687 275.984,433.072C275.291,434.46 274.711,436.001 274.248,437.695C273.783,439.392 273.738,441.255 274.105,443.288C274.473,445.324 275.063,446.933 275.871,448.116C276.68,449.302 277.602,450.22 278.631,450.874C279.658,451.529 280.744,452.015 281.889,452.333C283.031,452.654 284.096,453.021 285.082,453.439C286.066,453.855 286.92,454.4 287.637,455.075C288.355,455.751 288.832,456.734 289.064,458.021C289.273,459.177 289.098,460.818 288.539,462.949C287.979,465.083 287.279,467.415 286.443,469.949C285.604,472.482 284.773,475.05 283.949,477.648C283.123,480.253 282.529,482.581 282.168,484.642C281.807,486.706 281.82,488.331 282.209,489.521C282.6,490.712 283.645,491.154 285.34,490.845Z" style="fill:rgb(35,31,32);fill-rule:nonzero;"/>
        <path d="M339.533,432.706C337.498,433.075 335.553,434.027 333.693,435.558C331.834,437.093 330.098,439.005 328.482,441.306C326.867,443.605 325.395,446.21 324.066,449.124C322.738,452.04 321.58,455.029 320.596,458.093C324.041,457.4 327.09,456.249 329.742,454.644C332.393,453.036 334.641,451.241 336.488,449.253C338.334,447.263 339.771,445.243 340.801,443.193C341.83,441.14 342.477,439.3 342.742,437.667C343.008,436.038 342.861,434.745 342.305,433.788C341.744,432.835 340.822,432.474 339.533,432.706ZM361.982,435.997C362.246,435.529 362.592,435.204 363.014,435.023C363.436,434.841 363.816,434.81 364.152,434.923C364.488,435.036 364.721,435.257 364.85,435.583C364.979,435.913 364.943,436.302 364.746,436.757C363.832,438.675 362.611,441.312 361.084,444.669C359.553,448.031 357.75,451.7 355.67,455.685C353.59,459.667 351.279,463.745 348.744,467.917C346.207,472.091 343.488,475.943 340.592,479.48C337.695,483.015 334.635,486.04 331.412,488.548C328.189,491.058 324.85,492.624 321.391,493.249C319.965,493.509 318.334,493.488 316.494,493.191C314.654,492.894 312.867,492.218 311.137,491.165C309.404,490.115 307.857,488.626 306.494,486.7C305.129,484.777 304.178,482.324 303.639,479.339C303.184,476.831 303.162,473.909 303.574,470.577C303.986,467.247 304.797,463.79 306.006,460.208C307.213,456.628 308.807,453.048 310.785,449.468C312.764,445.888 315.078,442.615 317.729,439.648C320.379,436.683 323.332,434.134 326.588,432.003C329.844,429.874 333.406,428.456 337.271,427.757C340.797,427.12 343.295,427.368 344.762,428.503C346.229,429.642 347.158,431.292 347.549,433.462C348.115,436.583 347.803,439.706 346.617,442.824C345.432,445.947 343.547,448.88 340.961,451.622C338.375,454.366 335.205,456.779 331.449,458.861C327.693,460.943 323.555,462.46 319.037,463.419C318.244,466.784 317.729,470.029 317.49,473.154C317.25,476.281 317.338,478.997 317.756,481.3C318.174,483.607 318.982,485.37 320.184,486.587C321.385,487.806 323.035,488.226 325.139,487.843C327.24,487.464 329.516,486.105 331.967,483.771C334.416,481.437 336.895,478.589 339.402,475.228C341.91,471.868 344.365,468.202 346.762,464.23C349.16,460.261 351.371,456.409 353.393,452.681C355.414,448.952 357.186,445.585 358.709,442.579C360.23,439.572 361.32,437.376 361.982,435.997Z" style="fill:rgb(35,31,32);fill-rule:nonzero;"/>
        <path d="M388.225,481.154C386.055,481.544 384.301,481.339 382.965,480.529C381.627,479.722 380.609,478.749 379.914,477.615C379.047,476.302 378.475,474.689 378.199,472.777C377.684,469.929 377.91,466.734 378.881,463.197C379.852,459.659 381.129,456.085 382.717,452.47C384.305,448.857 386.012,445.325 387.84,441.874C389.668,438.429 391.189,435.423 392.406,432.855C393.623,430.288 394.324,428.271 394.514,426.8C394.703,425.331 393.949,424.747 392.256,425.054C390.896,425.3 389.342,426.37 387.584,428.265C385.824,430.159 383.953,432.583 381.965,435.533C379.977,438.486 377.936,441.816 375.84,445.519C373.744,449.228 371.693,452.993 369.689,456.824C367.688,460.654 365.738,464.406 363.848,468.072C361.953,471.743 360.234,475.013 358.689,477.882C357.143,480.755 355.811,483.081 354.697,484.857C353.584,486.636 352.756,487.574 352.213,487.671C351.264,487.843 350.352,487.835 349.477,487.642C348.602,487.45 347.814,487.171 347.119,486.808C346.422,486.445 345.881,486.07 345.496,485.683C345.111,485.298 344.9,485.003 344.863,484.798C344.826,484.595 345.305,483.269 346.297,480.812C347.289,478.355 348.525,475.224 350.006,471.417C351.488,467.613 353.07,463.388 354.75,458.74C356.432,454.095 357.951,449.529 359.311,445.044C360.67,440.562 361.723,436.411 362.469,432.601C363.215,428.788 363.385,425.763 362.98,423.525C362.932,423.255 363.367,423.052 364.289,422.919C365.211,422.788 366.277,422.876 367.488,423.181C368.699,423.488 369.871,424.064 371.006,424.908C372.139,425.753 372.854,426.99 373.148,428.616C373.441,430.245 373.354,432.277 372.885,434.708C372.414,437.14 371.84,439.484 371.164,441.743C370.486,444.005 369.893,445.949 369.385,447.581C368.873,449.214 368.721,450.011 368.924,449.976C369.059,449.95 369.566,449.177 370.445,447.652C371.326,446.126 372.463,444.187 373.859,441.833C375.254,439.48 376.861,436.947 378.682,434.234C380.504,431.527 382.449,428.931 384.523,426.454C386.596,423.978 388.75,421.855 390.986,420.083C393.223,418.312 395.424,417.232 397.596,416.837C399.9,416.421 401.693,416.831 402.969,418.074C404.244,419.312 405.115,421.222 405.58,423.798C405.889,425.493 405.781,427.511 405.256,429.845C404.734,432.185 403.977,434.667 402.98,437.298C401.988,439.929 400.848,442.638 399.566,445.425C398.285,448.216 397.023,450.913 395.777,453.519C394.533,456.128 393.385,458.575 392.328,460.868C391.273,463.161 390.527,465.134 390.092,466.79C389.654,468.445 389.584,469.7 389.881,470.558C390.174,471.413 391,471.72 392.357,471.476C393.51,471.267 394.908,470.191 396.553,468.247C398.197,466.302 399.965,463.882 401.857,460.982C403.75,458.083 405.676,454.9 407.639,451.425C409.604,447.954 411.439,444.558 413.15,441.236C414.859,437.913 416.395,434.888 417.758,432.154C419.117,429.421 420.129,427.363 420.791,425.984C421.043,425.449 421.383,425.107 421.813,424.958C422.24,424.812 422.621,424.777 422.949,424.857C423.279,424.937 423.512,425.159 423.65,425.519C423.781,425.88 423.75,426.29 423.555,426.745C422.643,428.661 421.402,431.302 419.84,434.667C418.277,438.031 416.518,441.659 414.561,445.55C412.602,449.443 410.488,453.431 408.217,457.519C405.945,461.611 403.658,465.333 401.361,468.689C399.063,472.046 396.789,474.874 394.545,477.171C392.297,479.47 390.191,480.798 388.225,481.154Z" style="fill:rgb(35,31,32);fill-rule:nonzero;"/>
        <path d="M447.227,470.474C445.057,470.866 443.305,470.658 441.965,469.851C440.627,469.04 439.611,468.07 438.918,466.935C438.047,465.62 437.477,464.009 437.199,462.097C436.684,459.247 436.912,456.056 437.885,452.517C438.855,448.98 440.133,445.404 441.719,441.788C443.309,438.177 445.016,434.646 446.842,431.197C448.67,427.751 450.191,424.743 451.408,422.175C452.625,419.611 453.326,417.591 453.516,416.12C453.705,414.652 452.951,414.068 451.254,414.374C449.9,414.62 448.342,415.691 446.586,417.585C444.826,419.48 442.953,421.902 440.967,424.853C438.979,427.804 436.938,431.134 434.842,434.839C432.746,438.546 430.693,442.314 428.691,446.144C426.688,449.974 424.74,453.724 422.848,457.392C420.957,461.064 419.236,464.335 417.689,467.202C416.143,470.075 414.814,472.402 413.699,474.177C412.586,475.956 411.76,476.894 411.215,476.991C410.266,477.163 409.354,477.156 408.479,476.962C407.604,476.771 406.818,476.491 406.119,476.128C405.426,475.763 404.885,475.39 404.498,475.003C404.113,474.616 403.902,474.324 403.865,474.12C403.83,473.915 404.309,472.587 405.297,470.132C406.289,467.677 407.527,464.544 409.008,460.738C410.49,456.935 412.072,452.708 413.752,448.06C415.434,443.413 416.953,438.851 418.313,434.365C419.67,429.88 420.725,425.732 421.473,421.921C422.217,418.107 422.389,415.083 421.984,412.847C421.936,412.575 422.369,412.372 423.291,412.241C424.213,412.109 425.281,412.197 426.49,412.501C427.701,412.808 428.873,413.384 430.008,414.23C431.141,415.074 431.855,416.312 432.15,417.939C432.445,419.566 432.355,421.597 431.885,424.027C431.416,426.46 430.844,428.804 430.164,431.066C429.488,433.322 428.895,435.269 428.385,436.902C427.875,438.536 427.723,439.333 427.928,439.296C428.061,439.271 428.57,438.495 429.447,436.972C430.328,435.445 431.463,433.507 432.861,431.152C434.256,428.8 435.863,426.269 437.684,423.556C439.504,420.847 441.451,418.251 443.525,415.775C445.6,413.298 447.754,411.173 449.99,409.404C452.225,407.634 454.428,406.55 456.598,406.158C458.902,405.741 460.695,406.154 461.969,407.394C463.248,408.632 464.117,410.542 464.582,413.118C464.889,414.816 464.783,416.829 464.26,419.167C463.738,421.503 462.977,423.986 461.982,426.616C460.988,429.251 459.85,431.958 458.57,434.747C457.287,437.536 456.025,440.234 454.779,442.841C453.535,445.447 452.385,447.898 451.328,450.191C450.273,452.48 449.527,454.454 449.092,456.109C448.656,457.765 448.584,459.021 448.883,459.878C449.176,460.736 450.002,461.04 451.361,460.794C452.514,460.587 453.91,459.511 455.557,457.566C457.199,455.624 458.969,453.204 460.861,450.302C462.75,447.404 464.678,444.218 466.643,440.745C468.604,437.275 470.441,433.876 472.152,430.554C473.861,427.234 475.396,424.208 476.76,421.474C478.119,418.743 479.131,416.685 479.791,415.304C480.045,414.769 480.385,414.427 480.814,414.279C481.242,414.132 481.623,414.097 481.953,414.179C482.283,414.257 482.514,414.478 482.648,414.839C482.785,415.199 482.752,415.609 482.557,416.064C481.643,417.982 480.404,420.622 478.844,423.986C477.279,427.353 475.52,430.98 473.561,434.87C471.605,438.763 469.49,442.751 467.219,446.839C464.947,450.927 462.66,454.652 460.363,458.009C458.064,461.368 455.791,464.197 453.547,466.491C451.299,468.788 449.193,470.116 447.227,470.474Z" style="fill:rgb(35,31,32);fill-rule:nonzero;"/>
        <path d="M489.67,457.116C490.619,456.945 491.91,456.046 493.541,454.419C495.172,452.794 496.908,450.677 498.748,448.068C500.588,445.458 502.414,442.486 504.225,439.144C506.037,435.806 507.611,432.316 508.949,428.675C510.287,425.036 511.25,421.359 511.84,417.646C512.426,413.931 512.419,410.415 511.818,407.089C511.586,405.802 511.027,404.554 510.145,403.349C509.26,402.144 508.174,401.656 506.885,401.89C505.121,402.208 503.305,403.396 501.436,405.45C499.564,407.505 497.73,410.044 495.934,413.064C494.133,416.089 492.443,419.423 490.861,423.072C489.281,426.72 487.934,430.308 486.822,433.837C485.709,437.366 484.881,440.632 484.34,443.636C483.799,446.642 483.682,448.991 483.988,450.685C484.344,452.654 484.973,454.29 485.877,455.597C486.777,456.906 488.043,457.411 489.67,457.116ZM539.523,404.599C539.791,404.128 540.117,403.808 540.506,403.632C540.895,403.456 541.258,403.425 541.594,403.54C541.928,403.654 542.178,403.872 542.34,404.191C542.502,404.513 542.486,404.902 542.289,405.357C541.373,407.275 540.223,409.898 538.83,413.234C537.438,416.568 535.729,420.185 533.703,424.089C531.678,427.993 529.309,432.029 526.596,436.197C523.885,440.366 520.768,444.24 517.248,447.818C513.727,451.398 509.777,454.529 505.395,457.212C501.012,459.898 496.109,461.732 490.682,462.712C487.834,463.23 485.283,462.48 483.029,460.474C480.771,458.464 479.047,455.888 477.848,452.745C475.389,458.513 472.965,464.187 470.578,469.767C468.193,475.345 466.014,480.325 464.041,484.712C462.066,489.097 452.002,510.921 450.566,513.632C449.129,516.343 448.107,517.755 447.498,517.866C446.955,517.962 446.342,517.95 445.652,517.832C444.965,517.708 444.291,517.465 443.627,517.093C442.967,516.722 442.395,516.283 441.918,515.777C441.441,515.265 441.135,514.639 441,513.892C440.938,513.554 441.381,512.23 442.33,509.921C443.277,507.615 452.902,486.361 454.484,482.712C456.066,479.066 457.852,474.906 459.844,470.238C461.834,465.572 463.875,460.667 465.953,455.527C468.035,450.388 470.023,445.212 471.914,440.003C473.811,434.79 475.443,429.802 476.822,425.034C478.201,420.267 479.219,415.917 479.871,411.98C480.525,408.044 480.619,404.79 480.152,402.21C480.092,401.87 480.541,401.65 481.502,401.546C482.463,401.443 483.555,401.562 484.77,401.898C485.99,402.241 487.164,402.833 488.297,403.677C489.43,404.523 490.145,405.759 490.439,407.386C490.574,408.136 490.607,409.003 490.545,409.997C490.479,410.988 490.373,412.058 490.232,413.202C493.029,408.915 496.023,405.257 499.225,402.226C502.422,399.195 505.717,397.372 509.109,396.759C511.348,396.353 513.224,396.488 514.75,397.158C516.27,397.827 517.551,398.804 518.59,400.087C519.625,401.37 520.438,402.851 521.023,404.531C521.604,406.212 522.044,407.866 522.34,409.493C522.82,412.138 522.852,415.126 522.439,418.458C522.026,421.79 521.245,425.206 520.091,428.708C518.938,432.208 517.473,435.712 515.69,439.222C513.909,442.732 511.889,445.988 509.631,448.986C511.684,448.335 513.745,446.964 515.82,444.872C517.893,442.781 519.934,440.312 521.939,437.46C523.945,434.611 525.859,431.548 527.686,428.279C529.508,425.005 531.195,421.847 532.744,418.798C534.295,415.753 535.646,412.968 536.803,410.447C537.957,407.927 538.861,405.976 539.523,404.599Z" style="fill:rgb(35,31,32);fill-rule:nonzero;"/>
        <path d="M597.285,394.036C597.541,393.501 597.883,393.159 598.311,393.009C598.74,392.865 599.117,392.829 599.447,392.909C599.777,392.99 600.01,393.212 600.146,393.572C600.279,393.933 600.248,394.339 600.053,394.796C599.141,396.712 597.865,399.359 596.236,402.738C594.605,406.115 592.777,409.755 590.756,413.658C588.729,417.56 586.563,421.56 584.258,425.654C581.951,429.749 579.633,433.478 577.297,436.843C574.967,440.208 572.711,443.033 570.533,445.316C568.355,447.603 566.418,448.898 564.723,449.206C562.621,449.585 560.961,449.519 559.748,449.001C558.535,448.488 557.568,447.806 556.854,446.95C556.047,445.978 555.488,444.82 555.176,443.474C554.795,441.37 555.088,438.64 556.057,435.279C557.023,431.917 558.277,428.308 559.822,424.456C559.293,425.392 558.57,426.732 557.66,428.474C556.75,430.214 555.664,432.144 554.4,434.265C553.137,436.382 551.732,438.583 550.184,440.859C548.635,443.134 547.002,445.234 545.285,447.156C543.564,449.079 541.764,450.734 539.879,452.126C537.992,453.519 536.104,454.386 534.205,454.73C531.898,455.146 530.029,454.679 528.592,453.329C527.158,451.98 526.207,450.015 525.738,447.437C525.406,445.607 525.609,443.329 526.342,440.603C527.072,437.88 528.072,434.878 529.336,431.603C530.598,428.329 531.986,424.872 533.498,421.238C535.014,417.601 536.41,414.003 537.693,410.443C538.975,406.886 539.998,403.445 540.762,400.118C541.523,396.794 541.801,393.784 541.598,391.089C541.549,390.82 542.016,390.611 543.008,390.466C543.996,390.324 545.111,390.4 546.361,390.699C547.604,391.001 548.813,391.587 549.984,392.458C551.158,393.333 551.895,394.583 552.189,396.21C552.559,398.247 552.307,400.917 551.436,404.228C550.563,407.538 549.436,411.087 548.055,414.872C546.674,418.661 545.174,422.468 543.557,426.298C541.939,430.128 540.578,433.544 539.475,436.544C538.375,439.548 537.705,441.96 537.477,443.79C537.244,445.616 537.777,446.413 539.066,446.179C540.352,445.947 541.82,444.964 543.469,443.23C545.117,441.497 546.836,439.294 548.631,436.62C550.422,433.95 552.271,430.919 554.18,427.527C556.088,424.134 557.963,420.661 559.805,417.105C561.646,413.55 563.43,410.04 565.15,406.577C566.869,403.115 568.484,399.95 570,397.085C570.439,395.255 570.713,393.298 570.826,391.208C570.938,389.124 570.926,387.322 570.791,385.804C570.744,385.534 571.215,385.343 572.213,385.232C573.207,385.122 574.332,385.234 575.582,385.568C576.834,385.904 578.041,386.488 579.211,387.325C580.379,388.167 581.105,389.366 581.385,390.925C581.754,392.96 581.514,395.597 580.662,398.831C579.811,402.07 578.723,405.523 577.391,409.195C576.059,412.868 574.607,416.564 573.043,420.279C571.471,423.995 570.162,427.312 569.117,430.234C568.07,433.156 567.443,435.493 567.234,437.247C567.027,439.001 567.566,439.761 568.855,439.527C570.01,439.318 571.406,438.243 573.051,436.298C574.695,434.355 576.463,431.933 578.355,429.036C580.246,426.136 582.174,422.95 584.139,419.478C586.1,416.007 587.938,412.611 589.646,409.286C591.355,405.968 592.893,402.939 594.256,400.206C595.617,397.474 596.629,395.415 597.285,394.036Z" style="fill:rgb(35,31,32);fill-rule:nonzero;"/>
        <path d="M623.727,438.525C621.557,438.917 619.803,438.71 618.465,437.902C617.127,437.095 616.109,436.122 615.414,434.988C614.549,433.673 613.977,432.06 613.699,430.15C613.186,427.3 613.41,424.107 614.383,420.57C615.354,417.033 616.631,413.458 618.221,409.841C619.807,406.23 621.512,402.697 623.344,399.249C625.17,395.802 626.691,392.794 627.906,390.228C629.123,387.661 629.824,385.642 630.014,384.173C630.203,382.704 629.451,382.12 627.756,382.427C626.4,382.671 624.842,383.743 623.084,385.638C621.326,387.533 619.453,389.956 617.465,392.906C615.479,395.859 613.436,399.187 611.34,402.892C609.244,406.599 607.195,410.366 605.193,414.195C603.189,418.027 601.24,421.777 599.35,425.445C597.455,429.115 595.734,432.386 594.189,435.255C592.645,438.13 591.313,440.454 590.199,442.23C589.086,444.007 588.258,444.947 587.713,445.044C586.766,445.216 585.852,445.206 584.979,445.015C584.102,444.824 583.316,444.544 582.619,444.179C581.926,443.818 581.381,443.443 580.998,443.054C580.613,442.671 580.4,442.376 580.365,442.171C580.328,441.968 580.807,440.64 581.797,438.183C582.789,435.728 584.023,432.597 585.508,428.79C586.988,424.986 588.572,420.759 590.254,416.113C591.934,411.466 593.451,406.902 594.811,402.415C596.172,397.933 597.223,393.784 597.971,389.974C598.715,386.159 598.887,383.136 598.482,380.898C598.434,380.628 598.867,380.425 599.791,380.292C600.713,380.161 601.779,380.249 602.988,380.554C604.203,380.863 605.373,381.437 606.506,382.283C607.641,383.126 608.355,384.363 608.65,385.99C608.943,387.616 608.854,389.65 608.387,392.079C607.916,394.513 607.342,396.857 606.666,399.116C605.986,401.376 605.393,403.32 604.885,404.954C604.373,406.587 604.221,407.382 604.424,407.349C604.559,407.324 605.068,406.548 605.949,405.023C606.828,403.497 607.965,401.56 609.361,399.206C610.756,396.853 612.361,394.32 614.184,391.609C616.004,388.898 617.951,386.304 620.023,383.827C622.098,381.351 624.252,379.228 626.488,377.456C628.723,375.687 630.926,374.603 633.098,374.21C635.402,373.794 637.193,374.204 638.471,375.445C639.744,376.685 640.617,378.595 641.082,381.171C641.391,382.868 641.283,384.882 640.758,387.218C640.234,389.556 639.475,392.038 638.48,394.669C637.488,397.302 636.35,400.011 635.068,402.8C633.787,405.589 632.523,408.286 631.279,410.892C630.035,413.499 628.885,415.949 627.83,418.241C626.773,420.533 626.027,422.507 625.594,424.161C625.156,425.816 625.086,427.074 625.379,427.931C625.676,428.786 626.502,429.093 627.859,428.847C629.01,428.64 630.41,427.564 632.055,425.62C633.699,423.677 635.467,421.255 637.359,418.357C639.25,415.456 641.178,412.271 643.141,408.796C645.104,405.327 646.939,401.929 648.65,398.607C650.359,395.286 651.896,392.259 653.258,389.525C654.619,386.794 655.629,384.736 656.291,383.357C656.545,382.822 656.887,382.48 657.313,382.331C657.742,382.185 658.121,382.15 658.451,382.23C658.781,382.31 659.016,382.533 659.148,382.892C659.285,383.253 659.252,383.661 659.057,384.116C658.141,386.034 656.902,388.673 655.34,392.04C653.779,395.406 652.018,399.031 650.063,402.923C648.105,406.814 645.988,410.804 643.719,414.892C641.445,418.982 639.16,422.704 636.863,426.062C634.563,429.419 632.293,432.247 630.047,434.544C627.799,436.843 625.695,438.169 623.727,438.525Z" style="fill:rgb(35,31,32);fill-rule:nonzero;"/>
        <path d="M715.396,372.658C715.648,372.122 715.986,371.781 716.418,371.632C716.848,371.488 717.225,371.452 717.555,371.531C717.885,371.613 718.119,371.833 718.252,372.193C718.387,372.554 718.355,372.962 718.16,373.417C717.248,375.335 716.008,377.976 714.447,381.341C712.883,384.706 711.125,388.335 709.174,392.222C707.219,396.115 705.121,400.101 702.873,404.183C700.631,408.267 698.361,411.988 696.063,415.345C693.766,418.702 691.498,421.531 689.252,423.827C687.006,426.126 684.898,427.452 682.934,427.808C679.949,428.349 677.545,427.927 675.717,426.54C673.891,425.156 672.48,423.277 671.492,420.898C670.498,418.519 669.848,415.888 669.537,413.001C669.225,410.118 669.09,407.447 669.137,404.986C668.469,405.177 667.832,405.241 667.229,405.175C666.619,405.111 666.266,404.806 666.168,404.261C665.936,402.976 665.98,401.88 666.309,400.98C666.637,400.077 667.025,399.345 667.484,398.771C668.064,398.105 668.742,397.597 669.521,397.247C674.027,394.681 678.016,392.138 681.484,389.616C682.965,388.509 684.383,387.361 685.746,386.167C687.104,384.976 688.303,383.759 689.342,382.523C690.375,381.284 691.172,380.074 691.729,378.886C692.285,377.699 692.459,376.531 692.248,375.376C691.93,373.615 691.127,372.376 689.842,371.663C688.559,370.949 686.93,370.771 684.967,371.128C682.793,371.519 680.613,372.72 678.42,374.73C676.227,376.736 674.053,379.247 671.906,382.265C669.752,385.281 667.637,388.677 665.555,392.449C663.469,396.224 661.463,400.036 659.533,403.888C657.605,407.74 655.801,411.517 654.123,415.216C652.447,418.915 650.924,422.204 649.555,425.077C648.182,427.952 647.012,430.284 646.037,432.072C645.068,433.857 644.311,434.8 643.766,434.898C642.818,435.07 641.904,435.062 641.029,434.868C640.154,434.677 639.369,434.398 638.672,434.034C637.979,433.671 637.434,433.296 637.049,432.909C636.666,432.525 636.455,432.228 636.418,432.027C636.293,431.349 636.809,429.45 637.961,426.337C639.115,423.22 640.686,419.329 642.68,414.661C644.67,409.991 646.943,404.767 649.506,398.978C652.064,393.193 654.664,387.241 657.305,381.124C659.943,375.009 662.521,368.937 665.041,362.913C667.557,356.89 669.779,351.359 671.701,346.316C673.627,341.277 675.109,336.909 676.16,333.218C677.209,329.525 677.596,326.935 677.324,325.441C677.275,325.171 677.762,325.046 678.785,325.072C679.803,325.097 680.951,325.363 682.234,325.866C683.52,326.368 684.76,327.142 685.967,328.185C687.168,329.228 687.926,330.599 688.232,332.292C688.428,333.378 688.098,335.224 687.24,337.831C686.379,340.439 685.232,343.394 683.803,346.7C682.367,350.007 680.816,353.423 679.143,356.945C677.467,360.472 675.916,363.712 674.49,366.665C673.064,369.622 671.91,372.036 671.025,373.913C670.139,375.79 669.762,376.714 669.9,376.691C670.1,376.654 670.611,376.089 671.43,374.995C672.246,373.902 673.42,372.638 674.947,371.206C676.473,369.773 678.338,368.386 680.551,367.04C682.756,365.697 685.352,364.753 688.338,364.212C690.168,363.882 691.889,363.745 693.5,363.802C695.113,363.863 696.555,364.144 697.818,364.652C699.084,365.156 700.135,365.913 700.975,366.915C701.811,367.919 702.367,369.169 702.637,370.659C703.041,372.896 702.963,375.066 702.408,377.161C701.852,379.259 700.967,381.275 699.756,383.212C698.545,385.146 697.119,386.98 695.486,388.712C693.85,390.445 692.111,392.038 690.273,393.49C685.992,396.927 681.063,400.062 675.48,402.892C675.457,407.029 675.697,410.665 676.195,413.794C676.439,415.15 676.742,416.445 677.105,417.675C677.469,418.908 677.941,419.974 678.527,420.884C679.111,421.794 679.816,422.49 680.637,422.97C681.461,423.452 682.447,423.589 683.602,423.38C684.756,423.171 686.238,421.976 688.049,419.792C689.859,417.607 691.834,414.87 693.967,411.575C696.104,408.283 698.289,404.663 700.529,400.722C702.768,396.781 704.875,392.966 706.863,389.279C708.848,385.593 710.6,382.245 712.121,379.24C713.643,376.232 714.736,374.038 715.396,372.658Z" style="fill:rgb(35,31,32);fill-rule:nonzero;"/>
        <path d="M781.607,329.259C781.707,329.802 780.617,330.839 778.338,332.372C776.057,333.906 772.91,335.665 768.895,337.654C764.873,339.642 760.152,341.706 754.725,343.843C749.299,345.98 743.486,347.927 737.289,349.679C735.203,354.4 733.018,359.366 730.74,364.574C728.461,369.784 726.354,374.861 724.41,379.8C722.467,384.74 720.789,389.402 719.377,393.79C717.967,398.181 717.043,401.988 716.613,405.22C716.182,408.449 716.332,410.925 717.063,412.65C717.797,414.372 719.383,415.013 721.824,414.572C722.908,414.374 724.129,413.648 725.475,412.386C726.822,411.126 728.277,409.499 729.844,407.497C731.408,405.499 733.027,403.228 734.703,400.685C736.377,398.138 738.018,395.493 739.623,392.753C741.229,390.011 742.795,387.257 744.328,384.495C745.857,381.732 747.262,379.13 748.537,376.693C749.811,374.255 750.939,372.074 751.922,370.144C752.902,368.216 753.646,366.716 754.152,365.642C754.42,365.175 754.746,364.851 755.133,364.677C755.521,364.501 755.883,364.472 756.221,364.585C756.559,364.699 756.809,364.917 756.971,365.238C757.133,365.56 757.115,365.947 756.918,366.402C756.018,368.388 754.764,371.048 753.16,374.384C751.559,377.722 749.73,381.363 747.678,385.306C745.625,389.249 743.408,393.259 741.029,397.329C738.648,401.404 736.209,405.138 733.707,408.533C731.205,411.927 728.711,414.796 726.229,417.134C723.744,419.476 721.385,420.849 719.148,421.253C716.566,421.72 714.385,421.644 712.59,421.021C710.799,420.4 709.281,419.486 708.049,418.271C706.813,417.06 705.867,415.708 705.213,414.214C704.561,412.722 704.121,411.365 703.898,410.146C703.518,408.044 703.836,404.954 704.85,400.884C705.863,396.816 707.318,392.175 709.211,386.964C711.105,381.753 713.27,376.212 715.711,370.343C718.15,364.472 720.604,358.687 723.074,352.986C716.563,354.165 711.275,354.74 707.209,354.702C703.137,354.671 699.91,354.257 697.525,353.462C695.139,352.669 693.461,351.607 692.482,350.275C691.51,348.949 690.893,347.572 690.633,346.148C690.412,344.925 690.68,343.984 691.434,343.322C692.193,342.659 692.873,342.273 693.484,342.163C693.754,342.115 694.275,342.388 695.051,342.984C695.826,343.577 697.111,344.204 698.91,344.859C700.709,345.515 703.129,346.023 706.174,346.38C709.215,346.741 713.172,346.656 718.051,346.122C719.082,346.005 720.139,345.866 721.23,345.704C722.324,345.542 723.512,345.343 724.803,345.111L726.533,344.798C728.166,341.068 729.713,337.515 731.166,334.134C732.623,330.755 733.861,327.745 734.891,325.109C735.92,322.47 736.705,320.243 737.256,318.427C737.801,316.613 738.02,315.402 737.91,314.79C737.727,313.775 738.115,313.228 739.088,313.159C740.053,313.089 741.189,313.374 742.498,314.013C743.801,314.652 745.059,315.597 746.268,316.849C747.475,318.101 748.219,319.507 748.502,321.068C748.688,322.083 748.029,324.464 746.535,328.2C745.043,331.939 743.104,336.511 740.717,341.913C746.895,340.445 752.162,338.966 756.516,337.478C760.867,335.99 764.455,334.624 767.277,333.376C770.098,332.13 772.256,331.095 773.752,330.261C775.248,329.429 776.266,328.966 776.809,328.866C777.963,328.659 779.025,328.536 780,328.499C780.975,328.464 781.51,328.718 781.607,329.259Z" style="fill:rgb(35,31,32);fill-rule:nonzero;"/>
        <path d="M316.086,513.629C318.402,513.208 320.736,513.572 322.699,514.616C322.936,514.783 322.994,515.103 322.877,515.371C322.754,515.597 322.475,515.65 322.205,515.533C320.432,514.616 318.344,514.254 316.268,514.626C311.193,515.546 307.914,520.225 308.789,525.058C309.664,529.89 314.375,533.122 319.447,532.202C321.525,531.827 323.344,530.714 324.686,529.234C324.863,529.077 325.189,529.06 325.385,529.23C325.588,529.443 325.639,529.72 325.477,529.958C323.998,531.587 321.945,532.783 319.627,533.202C314.068,534.167 308.76,530.589 307.791,525.24C306.814,519.845 310.531,514.636 316.086,513.629Z" style="fill:rgb(35,31,32);fill-rule:nonzero;"/>
        <path d="M341.295,528.249C345.807,527.431 348.848,522.796 347.973,517.965C347.092,513.091 342.627,509.857 338.113,510.675C333.6,511.491 330.594,516.075 331.475,520.952C332.35,525.783 336.781,529.066 341.295,528.249ZM337.934,509.673C343.045,508.749 347.996,512.394 348.971,517.783C349.939,523.136 346.588,528.322 341.477,529.247C336.363,530.173 331.445,526.486 330.477,521.132C329.502,515.741 332.82,510.601 337.934,509.673Z" style="fill:rgb(35,31,32);fill-rule:nonzero;"/>
        <path d="M359.74,497.519C359.791,497.798 359.594,498.081 359.314,498.132C357.877,498.392 357.016,498.878 356.572,499.616C356.088,500.365 355.98,501.583 356.32,503.46L356.797,506.097L360.15,505.49C360.432,505.439 360.674,505.642 360.725,505.921C360.775,506.2 360.619,506.476 360.34,506.527L356.984,507.132L360.266,525.269C360.316,525.55 360.121,525.829 359.84,525.882C359.561,525.933 359.277,525.738 359.227,525.454L355.945,507.322L352.75,507.902C352.471,507.95 352.188,507.753 352.137,507.476C352.086,507.197 352.283,506.913 352.563,506.863L355.756,506.284L355.279,503.648C354.918,501.65 355.023,500.187 355.689,499.075C356.395,497.958 357.576,497.413 359.133,497.132C359.412,497.081 359.689,497.24 359.74,497.519Z" style="fill:rgb(35,31,32);fill-rule:nonzero;"/>
        <path d="M374.197,494.902C374.248,495.181 374.053,495.462 373.773,495.513C372.334,495.775 371.475,496.261 371.031,497.001C370.547,497.749 370.438,498.964 370.777,500.843L371.254,503.478L374.609,502.87C374.889,502.822 375.133,503.023 375.184,503.304C375.234,503.583 375.076,503.859 374.797,503.909L371.441,504.517L374.725,522.652C374.775,522.931 374.58,523.215 374.299,523.265C374.02,523.314 373.736,523.121 373.686,522.84L370.404,504.704L367.207,505.284C366.93,505.333 366.645,505.138 366.594,504.859C366.543,504.579 366.74,504.296 367.021,504.245L370.215,503.667L369.738,501.031C369.377,499.033 369.482,497.57 370.148,496.458C370.854,495.341 372.035,494.796 373.592,494.515C373.873,494.466 374.148,494.622 374.197,494.902Z" style="fill:rgb(35,31,32);fill-rule:nonzero;"/>
        <path d="M382.924,510.525L399.781,507.474C398.473,503.214 394.277,500.548 390.004,501.322C385.65,502.109 382.656,506.077 382.924,510.525ZM382.08,511.792C381.178,506.345 384.584,501.23 389.816,500.283C394.809,499.38 399.559,502.605 400.838,507.613L400.844,507.654L400.859,507.732L400.867,507.771C400.869,508.019 400.713,508.294 400.473,508.337L383.057,511.49L383.08,511.609C383.947,516.405 388.459,519.669 393.178,518.858C396.133,518.322 398.441,516.255 399.484,513.591C399.602,513.322 399.883,513.273 400.182,513.341C400.404,513.426 400.541,513.73 400.424,513.997C399.219,516.898 396.633,519.265 393.359,519.855C388.111,520.726 383.129,517.129 382.08,511.792Z" style="fill:rgb(35,31,32);fill-rule:nonzero;"/>
        <path d="M407.248,506.122L424.104,503.072C422.797,498.812 418.602,496.146 414.328,496.919C409.973,497.708 406.979,501.675 407.248,506.122ZM406.404,507.39C405.502,501.941 408.906,496.827 414.139,495.88C419.135,494.976 423.885,498.202 425.158,503.21L425.168,503.251L425.189,503.368C425.193,503.615 425.035,503.892 424.797,503.935L407.381,507.085L407.402,507.208C408.27,512.001 412.781,515.269 417.502,514.454C420.459,513.919 422.764,511.853 423.809,509.187C423.926,508.919 424.203,508.868 424.504,508.937C424.727,509.021 424.865,509.327 424.75,509.595C423.541,512.495 420.957,514.861 417.682,515.452C412.434,516.322 407.451,512.726 406.404,507.39Z" style="fill:rgb(35,31,32);fill-rule:nonzero;"/>
        <path d="M493.705,481.48C496.023,481.06 498.357,481.419 500.32,482.468C500.557,482.63 500.613,482.952 500.498,483.22C500.375,483.447 500.094,483.497 499.826,483.382C498.053,482.466 495.965,482.103 493.887,482.478C488.813,483.398 485.533,488.074 486.41,492.908C487.285,497.74 491.994,500.972 497.068,500.052C499.146,499.677 500.965,498.564 502.305,497.083C502.484,496.927 502.811,496.909 503.006,497.079C503.209,497.29 503.262,497.57 503.098,497.806C501.617,499.435 499.564,500.63 497.25,501.052C491.689,502.015 486.379,498.439 485.41,493.087C484.434,487.697 488.154,482.482 493.705,481.48Z" style="fill:rgb(35,31,32);fill-rule:nonzero;"/>
        <path d="M518.916,496.099C523.43,495.281 526.469,490.646 525.594,485.814C524.711,480.941 520.25,477.706 515.734,478.523C511.221,479.341 508.217,483.925 509.098,488.8C509.973,493.634 514.4,496.915 518.916,496.099ZM515.552,477.525C520.668,476.599 525.617,480.243 526.594,485.632C527.561,490.986 524.209,496.173 519.098,497.097C513.982,498.023 509.068,494.331 508.098,488.98C507.123,483.589 510.439,478.449 515.552,477.525Z" style="fill:rgb(35,31,32);fill-rule:nonzero;"/>
        <path d="M563.037,477.097C562.346,473.263 558.713,470.745 554.998,471.417C551.283,472.087 548.781,475.593 549.328,479.288L549.377,479.57L551.395,490.714C551.408,490.796 551.418,490.833 551.385,490.88C551.391,490.921 551.359,490.97 551.367,491.005C551.332,491.056 551.332,491.056 551.34,491.095C551.24,491.238 551.129,491.298 550.969,491.327C550.689,491.376 550.447,491.173 550.396,490.894L548.379,479.749C547.686,475.915 544.053,473.398 540.258,474.085C536.582,474.749 534.084,478.253 534.625,481.95L536.693,493.376C536.717,493.493 536.691,493.583 536.668,493.667C536.633,493.716 536.633,493.716 536.639,493.755C536.6,493.765 536.607,493.804 536.568,493.812C536.502,493.906 536.391,493.966 536.309,493.98L536.189,494.001C535.943,494.007 535.707,493.843 535.656,493.564L533.639,482.419C533.582,482.099 533.566,481.771 533.547,481.443L532.381,475.015C532.324,474.697 532.447,474.466 532.768,474.409C533.008,474.363 533.281,474.521 533.34,474.843L533.982,478.396C534.9,475.714 537.121,473.618 540.076,473.085C543.436,472.478 546.689,474.075 548.354,476.866C548.93,473.667 551.42,471.031 554.818,470.417C559.131,469.636 563.248,472.562 564.035,476.917L566.055,488.06C566.105,488.339 565.949,488.616 565.67,488.665C565.432,488.71 565.107,488.521 565.057,488.241L563.037,477.097Z" style="fill:rgb(35,31,32);fill-rule:nonzero;"/>
        <path d="M572.939,477.12C573.807,481.915 578.303,485.099 582.855,484.277C587.451,483.445 590.543,478.886 589.678,474.089C588.814,469.337 584.313,466.109 579.717,466.945C575.287,467.743 572.203,472.14 572.873,476.761L572.939,477.12ZM572.012,477.7L571.941,477.3L571.869,476.9L570.287,468.154C570.229,467.833 570.389,467.597 570.711,467.54C570.99,467.49 571.227,467.654 571.281,467.974L572.156,472.808C573.1,469.335 575.902,466.601 579.535,465.943C584.811,464.988 589.744,468.55 590.715,473.902C591.682,479.255 588.316,484.361 583.043,485.316C579.41,485.974 575.816,484.355 573.734,481.513L576.188,495.054C576.244,495.374 576.08,495.609 575.799,495.659C575.48,495.72 575.246,495.556 575.188,495.236L572.012,477.7Z" style="fill:rgb(35,31,32);fill-rule:nonzero;"/>
        <path d="M597.371,471.708L614.229,468.658C612.918,464.398 608.725,461.732 604.449,462.507C600.094,463.296 597.098,467.259 597.371,471.708ZM596.525,472.974C595.625,467.529 599.029,462.415 604.262,461.468C609.254,460.564 614.006,463.788 615.281,468.798L615.291,468.837L615.303,468.917L615.311,468.954C615.316,469.202 615.156,469.478 614.918,469.521L597.504,472.673L597.525,472.794C598.393,477.587 602.902,480.855 607.623,480.042C610.58,479.505 612.887,477.437 613.928,474.775C614.047,474.507 614.328,474.454 614.627,474.525C614.852,474.607 614.986,474.913 614.869,475.181C613.662,478.081 611.082,480.447 607.805,481.04C602.557,481.908 597.576,478.312 596.525,472.974Z" style="fill:rgb(35,31,32);fill-rule:nonzero;"/>
        <path d="M625.523,458.156C625.574,458.435 625.371,458.679 625.09,458.73L621.896,459.308L624.715,474.882C624.92,476.003 626.004,476.757 627.119,476.554C627.4,476.503 627.678,476.659 627.729,476.939C627.779,477.218 627.582,477.501 627.301,477.552C625.625,477.855 624.02,476.743 623.715,475.064L620.898,459.49L617.543,460.097C617.262,460.146 616.988,459.99 616.936,459.71C616.883,459.429 617.082,459.148 617.359,459.097L620.715,458.49L619.299,450.659C619.248,450.38 619.404,450.105 619.684,450.054C619.961,450.003 620.246,450.2 620.299,450.478L621.715,458.308L624.91,457.73C625.189,457.679 625.473,457.874 625.523,458.156Z" style="fill:rgb(35,31,32);fill-rule:nonzero;"/>
        <path d="M634.475,464.993L651.33,461.941C650.025,457.681 645.826,455.015 641.553,455.79C637.199,456.579 634.205,460.544 634.475,464.993ZM633.631,466.259C632.727,460.812 636.135,455.697 641.365,454.751C646.359,453.849 651.111,457.074 652.387,462.079L652.395,462.12L652.408,462.199L652.416,462.238C652.418,462.486 652.262,462.761 652.021,462.806L634.607,465.956L634.631,466.077C635.498,470.87 640.008,474.138 644.729,473.325C647.684,472.79 649.99,470.722 651.035,468.058C651.15,467.79 651.43,467.74 651.734,467.808C651.953,467.892 652.092,468.197 651.975,468.466C650.768,471.365 648.184,473.732 644.91,474.324C639.662,475.191 634.678,471.597 633.631,466.259Z" style="fill:rgb(35,31,32);fill-rule:nonzero;"/>
        <path d="M673.791,457.048C673.092,453.175 669.426,450.704 665.67,451.384C661.914,452.064 659.309,455.671 660.01,459.544L662.027,470.689C662.047,470.808 662.033,470.935 661.965,471.029C661.908,471.163 661.805,471.265 661.643,471.294L661.563,471.308L661.482,471.324C661.436,471.29 661.396,471.298 661.348,471.265C661.309,471.275 661.26,471.241 661.213,471.208C661.166,471.173 661.166,471.173 661.16,471.134C661.111,471.103 661.061,471.029 661.045,470.95L661.029,470.868L659.012,459.726L658.955,459.406L657.67,452.294C657.611,451.976 657.822,451.773 658.1,451.724C658.379,451.671 658.609,451.794 658.664,452.115L659.314,455.71C660.234,453.029 662.533,450.919 665.488,450.384C669.801,449.603 673.994,452.476 674.789,456.868L676.807,468.013C676.857,468.292 676.66,468.575 676.383,468.624C676.061,468.685 675.859,468.472 675.809,468.193L673.791,457.048Z" style="fill:rgb(35,31,32);fill-rule:nonzero;"/>
        <path d="M690.73,445.814C693.049,445.396 695.381,445.757 697.346,446.804C697.582,446.968 697.643,447.288 697.523,447.558C697.4,447.783 697.119,447.837 696.85,447.718C695.076,446.804 692.992,446.439 690.912,446.816C685.84,447.734 682.563,452.409 683.438,457.243C684.314,462.075 689.023,465.308 694.094,464.388C696.17,464.013 697.99,462.902 699.33,461.419C699.51,461.265 699.84,461.245 700.031,461.417C700.236,461.628 700.287,461.906 700.125,462.144C698.645,463.773 696.59,464.97 694.273,465.388C688.715,466.353 683.406,462.777 682.438,457.425C681.463,452.033 685.18,446.822 690.73,445.814Z" style="fill:rgb(35,31,32);fill-rule:nonzero;"/>
        <path d="M705.488,452.138L722.346,449.087C721.039,444.827 716.842,442.161 712.566,442.937C708.215,443.726 705.219,447.691 705.488,452.138ZM704.645,453.404C703.74,447.958 707.148,442.845 712.381,441.898C717.373,440.993 722.125,444.218 723.4,449.226L723.408,449.267L723.424,449.345L723.43,449.386C723.432,449.63 723.279,449.906 723.037,449.95L705.621,453.103L705.643,453.224C706.51,458.017 711.021,461.284 715.742,460.472C718.699,459.935 721.004,457.868 722.051,455.204C722.168,454.937 722.447,454.886 722.748,454.952C722.967,455.038 723.105,455.343 722.988,455.613C721.781,458.511 719.197,460.876 715.922,461.47C710.676,462.337 705.693,458.743 704.645,453.404Z" style="fill:rgb(35,31,32);fill-rule:nonzero;"/>
        <path d="M163.666,418.05C161.802,418.05 160.013,417.003 159.154,415.21C140.951,377.23 131.722,336.468 131.722,294.056C131.722,219.086 160.916,148.605 213.927,95.594C266.939,42.58 337.42,13.389 412.389,13.389C487.357,13.389 557.84,42.58 610.85,95.594C663.861,148.605 693.057,219.086 693.057,294.056C693.057,298.871 692.932,303.749 692.688,308.556C692.547,311.314 690.176,313.45 687.439,313.294C684.682,313.156 682.561,310.806 682.701,308.048C682.936,303.409 683.057,298.703 683.057,294.056C683.057,144.808 561.635,23.389 412.389,23.389C263.143,23.389 141.722,144.808 141.722,294.056C141.722,334.96 150.621,374.269 168.171,410.888C169.365,413.378 168.314,416.365 165.824,417.558C165.126,417.892 164.39,418.05 163.666,418.05Z" style="fill:rgb(35,31,32);fill-rule:nonzero;"/>
        <path d="M412.389,574.722C357.744,574.722 304.764,558.991 259.172,529.228C256.859,527.72 256.209,524.621 257.719,522.308C259.229,519.997 262.324,519.345 264.639,520.855C308.6,549.554 359.691,564.722 412.389,564.722C477.99,564.722 541.279,540.943 590.594,497.767C592.674,495.945 595.832,496.158 597.65,498.234C599.469,500.312 599.26,503.472 597.182,505.29C546.041,550.064 480.414,574.722 412.389,574.722Z" style="fill:rgb(35,31,32);fill-rule:nonzero;"/>
        <path d="M463.161,207.286C431.691,154.566 424.363,116.114 423.763,93.151C423.351,77.394 425.903,66.581 427.951,60.552C421.005,69.928 412.929,82.725 406.913,97.894C400.022,115.271 397.01,132.311 397.842,148.943C399.642,153.052 401.378,157.321 402.993,161.714C407.687,174.487 410.768,186.678 412.258,198.206C416.477,205.885 421.598,213.449 427.648,220.889L427.729,220.994C452.82,255.444 461.339,288.363 453.051,318.839C446.244,343.866 429.404,362.937 413.282,376.199C436.574,362.282 464.155,340.099 476.365,308.618C488.181,278.157 483.738,244.064 463.161,207.286Z" style="fill:rgb(138,93,59);fill-rule:nonzero;"/>
        <path d="M387.957,269.765C411.314,244.03 414.831,208.291 398.413,163.542C395.216,154.828 391.53,146.602 387.82,139.192C387.867,139.555 387.911,139.922 387.953,140.292C390.831,165.684 381.67,196.348 360.727,231.433C342.055,264.81 337.34,295.568 346.748,322.793C355.43,347.914 374.635,365.16 389.414,375.29C379.331,364.232 368.124,347.825 365.906,327.949C363.671,307.926 371.09,288.35 387.957,269.765Z" style="fill:rgb(168,123,80);fill-rule:nonzero;"/>
        <path d="M423.753,223.992C419.902,219.252 416.427,214.438 413.292,209.563C414.097,230.71 409.084,249.316 398.319,264.762C438.012,318.388 423.353,354.587 410.24,372.027C425.75,359.211 441.881,340.986 448.26,317.5C456.114,288.584 447.868,257.123 423.753,223.992Z" style="fill:rgb(96,56,18);fill-rule:nonzero;"/>
    </g>
</svg>
